<svg width="32" height="32" viewBox="0 0 32 32" fill="none" xmlns="http://www.w3.org/2000/svg">
<rect width="32" height="32" rx="8" fill="black"/>
<path d="M26 16.4289C26 15.06 25.1333 13.8822 23.8822 13.3267C24.3667 12.7444 24.66 12.02 24.66 11.2289C24.66 9.32667 22.9867 7.78222 20.9244 7.78222C20.2311 7.78222 19.5867 7.95778 19.0311 8.26C18.6889 6.96444 17.4267 6 15.9156 6C14.4356 6 13.1933 6.92444 12.8244 8.18222C12.3022 7.92889 11.7089 7.78222 11.0778 7.78222C9.01556 7.78222 7.34222 9.32444 7.34222 11.2289C7.34222 12.02 7.63333 12.7467 8.12 13.3267C6.86667 13.8822 6 15.0622 6 16.4289C6 18.0356 7.19556 19.3844 8.81111 19.7644C8.77111 19.9667 8.74667 20.1756 8.74667 20.3889C8.74667 22.2911 10.42 23.8356 12.4822 23.8356C13.2444 23.8356 13.9533 23.6244 14.5444 23.2622H14.5467V26H17.4622V23.2644C18.0511 23.6244 18.7578 23.8333 19.5178 23.8333C21.58 23.8333 23.2533 22.2911 23.2533 20.3867C23.2533 20.1733 23.2289 19.9644 23.1889 19.7622C24.8044 19.3844 26 18.0378 26 16.4289Z" fill="url(#paint0_linear_164_13)"/>
<defs>
<linearGradient id="paint0_linear_164_13" x1="18.6111" y1="13.3889" x2="6" y2="26" gradientUnits="userSpaceOnUse">
<stop stop-color="white"/>
<stop offset="1" stop-color="#B0B0B0"/>
</linearGradient>
</defs>
</svg>
